# xmcd
#
# Track frame offsets: 
#        182
#        14205
#        23917
#        31277
#        43120
#        52920
#        65630
#        78620
#        89627
#        98342
#        107192
#        115675
#        127812
#        139222
#        149480
#        162885
#        173862
#        183117
#        194325
#        202780
#        210292
#        221050
#        229990
#        239772
#        258347
#        267430
#        273737
#        281900
#
# Disc length: 3897 seconds
#
# Revision: 2
# Processed by: cddbd v1.5.2PL0 Copyright (c) Steve Scherf et al.
# Submitted via: ExactAudioCopy v1.3
#
DISCID=a70f371c
DTITLE=Various Artist - Fiddlers' Hall of Fame: 28 Old-Time Swing and Bluegrass
DTITLE=Fiddle Classics
DYEAR=1990
DGENRE=Bluegrass
TTITLE0=Buddy Spicher - Hornpipe Medley: Sailor's, Durang's, Rickett's
TTITLE0=, Fisher's
TTITLE1=Fiddlin' Red Herron - Give the Fiddler a Dram
TTITLE2=Chubby Wise - Lee Highway Blues
TTITLE3=Johnny Gimble - Twilight Waltz
TTITLE4=Ramona Jones - Ramona's Choice: Chinkapin, Angeline the Baker,
TTITLE4=Ragtime Annie
TTITLE5=Fiddlin' Red Herron - Limehouse Blues
TTITLE6=Benny Martin - Wabash Cannonball
TTITLE7=Johnny Gimble - Fat Boy Rag
TTITLE8=Mike Hartgrove and Don Parmley - Leather Britches
TTITLE9=Clarence "Tater" Tate - Peacock Rag
TTITLE10=Paul Warren - Dusty Miller
TTITLE11=Buddy Spicher - Sunny Side of the Mountain
TTITLE12=Johnny Gimble - Black and White Rag
TTITLE13=Benny Martin and Buddy Spicher - Sweet Bunch of Daisies
TTITLE14=Benny Martin and Buddy Spicher - Sweet Bunch of Daisies
TTITLE15=Paul Warren - Grey Eagle
TTITLE16=Johnny Gimble - Beaumont Rag
TTITLE17=Ramona Jones - Bonaparte Crossing the Alps
TTITLE18=Fiddlin' Red Herron - Arkansas Traveler
TTITLE19=Johnny Gimble - Barefoot Fiddler
TTITLE20=Benny Martin and Buddy Spicher - Georgiana Moon
TTITLE21=Randall Collins and Jerry Moore - Scotland
TTITLE22=Benny Martin - Soldier's Joy
TTITLE23=Johnny Gimble - Jole Blon
TTITLE24=Fiddlin' Red Herron - Fire on the Mountain
TTITLE25=Paul Warren - New Five Cents
TTITLE26=Buddy Spicher and Wynn Osborne - Forked Deer
TTITLE27=Fiddlin' Red Herron - Sweet Georgia Brown
EXTD=
EXTT0=
EXTT1=
EXTT2=
EXTT3=
EXTT4=
EXTT5=
EXTT6=
EXTT7=
EXTT8=
EXTT9=
EXTT10=
EXTT11=
EXTT12=
EXTT13=
EXTT14=
EXTT15=
EXTT16=
EXTT17=
EXTT18=
EXTT19=
EXTT20=
EXTT21=
EXTT22=
EXTT23=
EXTT24=
EXTT25=
EXTT26=
EXTT27=
PLAYORDER=
